<mxfile host="app.diagrams.net" modified="2023-08-05T22:13:59.155Z" agent="Mozilla/5.0 (Windows NT 10.0; Win64; x64) AppleWebKit/537.36 (KHTML, like Gecko) Chrome/115.0.0.0 Safari/537.36" etag="oAjW38O9jH2lOf3AH1sw" version="21.6.6" type="github">
  <diagram id="C5RBs43oDa-KdzZeNtuy" name="Page-1">
    <mxGraphModel dx="1050" dy="566" grid="1" gridSize="10" guides="1" tooltips="1" connect="1" arrows="1" fold="1" page="1" pageScale="1" pageWidth="827" pageHeight="1169" math="0" shadow="0">
      <root>
        <mxCell id="WIyWlLk6GJQsqaUBKTNV-0" />
        <mxCell id="WIyWlLk6GJQsqaUBKTNV-1" parent="WIyWlLk6GJQsqaUBKTNV-0" />
        <mxCell id="ncDcwBU7l1VGzrw3iZXN-1" value="" style="edgeStyle=orthogonalEdgeStyle;rounded=0;orthogonalLoop=1;jettySize=auto;html=1;" edge="1" parent="WIyWlLk6GJQsqaUBKTNV-1" source="XiMKKWVyvtWTgdpAV8Z2-0" target="ncDcwBU7l1VGzrw3iZXN-0">
          <mxGeometry relative="1" as="geometry" />
        </mxCell>
        <mxCell id="XiMKKWVyvtWTgdpAV8Z2-0" value="JOGO DA FIFA" style="rounded=1;whiteSpace=wrap;html=1;" parent="WIyWlLk6GJQsqaUBKTNV-1" vertex="1">
          <mxGeometry x="200" y="70" width="120" height="50" as="geometry" />
        </mxCell>
        <mxCell id="XiMKKWVyvtWTgdpAV8Z2-16" value="Informacoes dos jogos:&lt;br&gt;Jogadores escalados&amp;nbsp;&lt;br&gt;reservas&lt;br&gt;substituicoes&amp;nbsp;&lt;br&gt;cartoes aplicados&lt;br&gt;arbitragem&lt;br&gt;estadio&lt;br&gt;publico presente&amp;nbsp;&lt;br&gt;resultados" style="rounded=1;whiteSpace=wrap;html=1;" parent="WIyWlLk6GJQsqaUBKTNV-1" vertex="1">
          <mxGeometry x="545" y="370" width="270" height="140" as="geometry" />
        </mxCell>
        <mxCell id="ncDcwBU7l1VGzrw3iZXN-0" value="ID partida" style="ellipse;whiteSpace=wrap;html=1;rounded=1;" vertex="1" parent="WIyWlLk6GJQsqaUBKTNV-1">
          <mxGeometry x="190" y="140" width="70" height="35" as="geometry" />
        </mxCell>
        <mxCell id="ncDcwBU7l1VGzrw3iZXN-2" value="pais B" style="ellipse;whiteSpace=wrap;html=1;rounded=1;" vertex="1" parent="WIyWlLk6GJQsqaUBKTNV-1">
          <mxGeometry x="270" y="140" width="70" height="35" as="geometry" />
        </mxCell>
        <mxCell id="ncDcwBU7l1VGzrw3iZXN-13" value="" style="edgeStyle=orthogonalEdgeStyle;rounded=0;orthogonalLoop=1;jettySize=auto;html=1;" edge="1" parent="WIyWlLk6GJQsqaUBKTNV-1" source="ncDcwBU7l1VGzrw3iZXN-3" target="ncDcwBU7l1VGzrw3iZXN-12">
          <mxGeometry relative="1" as="geometry" />
        </mxCell>
        <mxCell id="ncDcwBU7l1VGzrw3iZXN-3" value="Escalacao" style="rounded=1;whiteSpace=wrap;html=1;" vertex="1" parent="WIyWlLk6GJQsqaUBKTNV-1">
          <mxGeometry x="414" y="70" width="120" height="50" as="geometry" />
        </mxCell>
        <mxCell id="ncDcwBU7l1VGzrw3iZXN-22" value="" style="edgeStyle=orthogonalEdgeStyle;rounded=0;orthogonalLoop=1;jettySize=auto;html=1;" edge="1" parent="WIyWlLk6GJQsqaUBKTNV-1" source="ncDcwBU7l1VGzrw3iZXN-4" target="ncDcwBU7l1VGzrw3iZXN-21">
          <mxGeometry relative="1" as="geometry" />
        </mxCell>
        <mxCell id="ncDcwBU7l1VGzrw3iZXN-4" value="ARBITRAGEM" style="rounded=1;whiteSpace=wrap;html=1;" vertex="1" parent="WIyWlLk6GJQsqaUBKTNV-1">
          <mxGeometry x="620" y="70" width="120" height="50" as="geometry" />
        </mxCell>
        <mxCell id="ncDcwBU7l1VGzrw3iZXN-5" value="pais B" style="ellipse;whiteSpace=wrap;html=1;rounded=1;" vertex="1" parent="WIyWlLk6GJQsqaUBKTNV-1">
          <mxGeometry x="190" y="190" width="70" height="35" as="geometry" />
        </mxCell>
        <mxCell id="ncDcwBU7l1VGzrw3iZXN-6" value="data" style="ellipse;whiteSpace=wrap;html=1;rounded=1;" vertex="1" parent="WIyWlLk6GJQsqaUBKTNV-1">
          <mxGeometry x="270" y="190" width="70" height="35" as="geometry" />
        </mxCell>
        <mxCell id="ncDcwBU7l1VGzrw3iZXN-7" value="hora" style="ellipse;whiteSpace=wrap;html=1;rounded=1;" vertex="1" parent="WIyWlLk6GJQsqaUBKTNV-1">
          <mxGeometry x="190" y="240" width="70" height="35" as="geometry" />
        </mxCell>
        <mxCell id="ncDcwBU7l1VGzrw3iZXN-8" value="estadio" style="ellipse;whiteSpace=wrap;html=1;rounded=1;" vertex="1" parent="WIyWlLk6GJQsqaUBKTNV-1">
          <mxGeometry x="270" y="240" width="70" height="35" as="geometry" />
        </mxCell>
        <mxCell id="ncDcwBU7l1VGzrw3iZXN-9" value="Publico" style="ellipse;whiteSpace=wrap;html=1;rounded=1;" vertex="1" parent="WIyWlLk6GJQsqaUBKTNV-1">
          <mxGeometry x="190" y="280" width="70" height="35" as="geometry" />
        </mxCell>
        <mxCell id="ncDcwBU7l1VGzrw3iZXN-10" value="Resultado" style="ellipse;whiteSpace=wrap;html=1;rounded=1;" vertex="1" parent="WIyWlLk6GJQsqaUBKTNV-1">
          <mxGeometry x="270" y="280" width="70" height="35" as="geometry" />
        </mxCell>
        <mxCell id="ncDcwBU7l1VGzrw3iZXN-12" value="iD partida" style="ellipse;whiteSpace=wrap;html=1;rounded=1;" vertex="1" parent="WIyWlLk6GJQsqaUBKTNV-1">
          <mxGeometry x="439.5" y="150" width="69" height="30" as="geometry" />
        </mxCell>
        <mxCell id="ncDcwBU7l1VGzrw3iZXN-14" value="Nome jogador" style="ellipse;whiteSpace=wrap;html=1;rounded=1;" vertex="1" parent="WIyWlLk6GJQsqaUBKTNV-1">
          <mxGeometry x="439.5" y="190" width="69" height="30" as="geometry" />
        </mxCell>
        <mxCell id="ncDcwBU7l1VGzrw3iZXN-15" value="id selecao" style="ellipse;whiteSpace=wrap;html=1;rounded=1;" vertex="1" parent="WIyWlLk6GJQsqaUBKTNV-1">
          <mxGeometry x="439.5" y="230" width="69" height="30" as="geometry" />
        </mxCell>
        <mxCell id="ncDcwBU7l1VGzrw3iZXN-16" value="status escalado ou reserva" style="ellipse;whiteSpace=wrap;html=1;rounded=1;" vertex="1" parent="WIyWlLk6GJQsqaUBKTNV-1">
          <mxGeometry x="430" y="275" width="96.25" height="35" as="geometry" />
        </mxCell>
        <mxCell id="ncDcwBU7l1VGzrw3iZXN-19" value="" style="edgeStyle=orthogonalEdgeStyle;rounded=0;orthogonalLoop=1;jettySize=auto;html=1;" edge="1" parent="WIyWlLk6GJQsqaUBKTNV-1" source="ncDcwBU7l1VGzrw3iZXN-17" target="ncDcwBU7l1VGzrw3iZXN-18">
          <mxGeometry relative="1" as="geometry" />
        </mxCell>
        <mxCell id="ncDcwBU7l1VGzrw3iZXN-17" value="SELECAO" style="rounded=1;whiteSpace=wrap;html=1;" vertex="1" parent="WIyWlLk6GJQsqaUBKTNV-1">
          <mxGeometry x="30" y="70" width="120" height="50" as="geometry" />
        </mxCell>
        <mxCell id="ncDcwBU7l1VGzrw3iZXN-18" value="ID selecao" style="ellipse;whiteSpace=wrap;html=1;rounded=1;" vertex="1" parent="WIyWlLk6GJQsqaUBKTNV-1">
          <mxGeometry x="65" y="150" width="50" height="35" as="geometry" />
        </mxCell>
        <mxCell id="ncDcwBU7l1VGzrw3iZXN-20" value="pais" style="ellipse;whiteSpace=wrap;html=1;rounded=1;" vertex="1" parent="WIyWlLk6GJQsqaUBKTNV-1">
          <mxGeometry x="65" y="195" width="50" height="35" as="geometry" />
        </mxCell>
        <mxCell id="ncDcwBU7l1VGzrw3iZXN-21" value="ID partida" style="ellipse;whiteSpace=wrap;html=1;rounded=1;" vertex="1" parent="WIyWlLk6GJQsqaUBKTNV-1">
          <mxGeometry x="640" y="145" width="80" height="25" as="geometry" />
        </mxCell>
        <mxCell id="ncDcwBU7l1VGzrw3iZXN-23" value="nome arbitro" style="ellipse;whiteSpace=wrap;html=1;rounded=1;" vertex="1" parent="WIyWlLk6GJQsqaUBKTNV-1">
          <mxGeometry x="640" y="180" width="80" height="25" as="geometry" />
        </mxCell>
        <mxCell id="ncDcwBU7l1VGzrw3iZXN-28" value="" style="edgeStyle=orthogonalEdgeStyle;rounded=0;orthogonalLoop=1;jettySize=auto;html=1;" edge="1" parent="WIyWlLk6GJQsqaUBKTNV-1" source="ncDcwBU7l1VGzrw3iZXN-26" target="ncDcwBU7l1VGzrw3iZXN-27">
          <mxGeometry relative="1" as="geometry" />
        </mxCell>
        <mxCell id="ncDcwBU7l1VGzrw3iZXN-26" value="CARTOES" style="rounded=1;whiteSpace=wrap;html=1;" vertex="1" parent="WIyWlLk6GJQsqaUBKTNV-1">
          <mxGeometry x="40" y="340" width="120" height="50" as="geometry" />
        </mxCell>
        <mxCell id="ncDcwBU7l1VGzrw3iZXN-27" value="id partida" style="ellipse;whiteSpace=wrap;html=1;rounded=1;" vertex="1" parent="WIyWlLk6GJQsqaUBKTNV-1">
          <mxGeometry x="60" y="420" width="80" height="25" as="geometry" />
        </mxCell>
        <mxCell id="ncDcwBU7l1VGzrw3iZXN-29" value="cor do cartao" style="ellipse;whiteSpace=wrap;html=1;rounded=1;" vertex="1" parent="WIyWlLk6GJQsqaUBKTNV-1">
          <mxGeometry x="60" y="460" width="80" height="25" as="geometry" />
        </mxCell>
        <mxCell id="ncDcwBU7l1VGzrw3iZXN-30" value="Nome jogador" style="ellipse;whiteSpace=wrap;html=1;rounded=1;" vertex="1" parent="WIyWlLk6GJQsqaUBKTNV-1">
          <mxGeometry x="170" y="380" width="80" height="25" as="geometry" />
        </mxCell>
        <mxCell id="ncDcwBU7l1VGzrw3iZXN-31" value="id selecao" style="ellipse;whiteSpace=wrap;html=1;rounded=1;" vertex="1" parent="WIyWlLk6GJQsqaUBKTNV-1">
          <mxGeometry x="170" y="420" width="80" height="25" as="geometry" />
        </mxCell>
        <mxCell id="ncDcwBU7l1VGzrw3iZXN-33" value="nome arbitro" style="ellipse;whiteSpace=wrap;html=1;rounded=1;" vertex="1" parent="WIyWlLk6GJQsqaUBKTNV-1">
          <mxGeometry x="170" y="340" width="80" height="30" as="geometry" />
        </mxCell>
        <mxCell id="ncDcwBU7l1VGzrw3iZXN-36" value="" style="edgeStyle=orthogonalEdgeStyle;rounded=0;orthogonalLoop=1;jettySize=auto;html=1;" edge="1" parent="WIyWlLk6GJQsqaUBKTNV-1" source="ncDcwBU7l1VGzrw3iZXN-34" target="ncDcwBU7l1VGzrw3iZXN-35">
          <mxGeometry relative="1" as="geometry" />
        </mxCell>
        <mxCell id="ncDcwBU7l1VGzrw3iZXN-34" value="SUBSTITUICOES" style="rounded=1;whiteSpace=wrap;html=1;" vertex="1" parent="WIyWlLk6GJQsqaUBKTNV-1">
          <mxGeometry x="294" y="340" width="120" height="50" as="geometry" />
        </mxCell>
        <mxCell id="ncDcwBU7l1VGzrw3iZXN-35" value="id partida" style="ellipse;whiteSpace=wrap;html=1;rounded=1;" vertex="1" parent="WIyWlLk6GJQsqaUBKTNV-1">
          <mxGeometry x="314" y="410" width="80" height="25" as="geometry" />
        </mxCell>
        <mxCell id="ncDcwBU7l1VGzrw3iZXN-37" value="nome jogador entra" style="ellipse;whiteSpace=wrap;html=1;rounded=1;" vertex="1" parent="WIyWlLk6GJQsqaUBKTNV-1">
          <mxGeometry x="314" y="445" width="80" height="25" as="geometry" />
        </mxCell>
        <mxCell id="ncDcwBU7l1VGzrw3iZXN-40" value="nome jogador q sai&amp;nbsp;" style="ellipse;whiteSpace=wrap;html=1;rounded=1;" vertex="1" parent="WIyWlLk6GJQsqaUBKTNV-1">
          <mxGeometry x="314" y="480" width="80" height="25" as="geometry" />
        </mxCell>
        <mxCell id="ncDcwBU7l1VGzrw3iZXN-41" value="id selecao" style="ellipse;whiteSpace=wrap;html=1;rounded=1;" vertex="1" parent="WIyWlLk6GJQsqaUBKTNV-1">
          <mxGeometry x="314" y="520" width="80" height="25" as="geometry" />
        </mxCell>
      </root>
    </mxGraphModel>
  </diagram>
</mxfile>
